<?xml version="1.0" encoding="UTF-8"?>
<!DOCTYPE svg PUBLIC "-//W3C//DTD SVG 1.1//EN" "http://www.w3.org/Graphics/SVG/1.1/DTD/svg11.dtd">
<!-- Creator: CorelDRAW X8 -->
<svg xmlns="http://www.w3.org/2000/svg" xml:space="preserve" width="3059px" height="2303px" version="1.1" style="shape-rendering:geometricPrecision; text-rendering:geometricPrecision; image-rendering:optimizeQuality; fill-rule:evenodd; clip-rule:evenodd"
viewBox="0 0 3059 2303"
 xmlns:xlink="http://www.w3.org/1999/xlink">
 <defs>
  <style type="text/css">
   <![CDATA[
    .fil0 {fill:#FEFEFE;fill-rule:nonzero}
   ]]>
  </style>
 </defs>
 <g id="Camada_x0020_1">
  <metadata id="CorelCorpID_0Corel-Layer"/>
  <g id="_2688037261888">
   <path class="fil0" d="M1160 28c-173,24 -297,177 -288,348 1,11 4,37 4,37 16,117 117,202 232,202 11,0 22,-1 33,-2l5 -1c128,-18 217,-137 199,-265l-48 -339 -137 20z"/>
   <path class="fil0" d="M2678 965c-53,585 -546,1044 -1144,1044l-21 0 0 -46c-1,-19 12,-38 30,-45l222 -83c0,0 106,6 150,-72l56 -102c12,-20 8,-45 -9,-60 -52,-49 -132,-124 -139,-185 -11,-99 -150,-180 -330,-191 0,0 -99,-74 -105,-200 -1,-19 -12,-38 -30,-34 -48,12 -130,74 -134,355 0,0 -255,129 -278,499 -21,-12 -41,-24 -60,-37 9,-113 37,-203 71,-270 66,-134 159,-209 206,-241 10,-277 100,-358 176,-377 23,-6 47,-1 66,14 22,16 36,43 38,72 4,74 48,127 69,148 34,3 66,8 96,16l3 -26 23 -227c4,-38 39,-70 77,-75 144,-21 465,-107 486,-454 1,-12 1,-24 1,-35 0,-28 -19,-51 -46,-57l-328 -69c0,0 -180,-224 -464,-223l48 335c23,162 -90,313 -253,336l-4 0c-14,2 -28,3 -42,3 -71,0 -140,-25 -194,-72 -24,-20 -46,-45 -62,-72l0 245c0,291 -375,527 -375,527 -47,-112 -75,-227 -85,-341 0,0 -273,0 -273,0 10,154 45,309 108,459 72,169 174,320 304,451 131,130 282,232 451,304 175,74 361,111 553,111 191,0 377,-37 552,-111 169,-72 321,-174 451,-304 130,-131 232,-282 304,-451 62,-147 99,-301 109,-459 0,0 -274,0 -274,0zm-987 468c22,0 39,17 39,39l0 0c0,22 -17,39 -39,39 -21,0 -39,-18 -39,-39l0 0c0,-22 18,-39 39,-39zm-39 -1129c22,0 39,18 39,39 0,22 -17,39 -39,39 -21,0 -39,-17 -39,-39 0,-22 18,-39 39,-39z"/>
   <path class="fil0" d="M3048 586c12,-12 6,-32 -10,-34l-138 -20 -71 -135c-4,-7 -11,-11 -18,-11 -6,0 -13,4 -17,11l-72 135 -139 20c-16,2 -22,22 -11,33l35 35 68 67 -13 84 -1 2 -10 63c-2,12 8,22 20,22 3,0 5,0 8,-2l89 -41 43 -20 44 21 86 40c3,1 6,1 8,1 12,0 22,-10 20,-23l-12 -61 -1 -1 -17 -86 73 -67 36 -33z"/>
   <path class="fil0" d="M488 586c12,-12 6,-32 -11,-34l-137 -20 -72 -135c-3,-7 -10,-11 -17,-11 -7,0 -14,4 -17,11l-72 135 -139 20c-16,2 -23,22 -11,33l34 35 69 67 -14 84 0 2 -10 63c-2,12 8,22 20,22 2,0 5,0 8,-2l89 -41 43 -20 44 21 86 40c2,1 5,1 8,1 12,0 22,-10 19,-23l-12 -61 0 -1 -17 -86 73 -67 36 -33z"/>
  </g>
 </g>
</svg>
