<?xml version="1.0" encoding="UTF-8"?>
<!DOCTYPE svg PUBLIC "-//W3C//DTD SVG 1.1//EN" "http://www.w3.org/Graphics/SVG/1.1/DTD/svg11.dtd">
<!-- Creator: CorelDRAW X8 -->
<svg xmlns="http://www.w3.org/2000/svg" xml:space="preserve" width="100mm" height="100mm" version="1.1" style="shape-rendering:geometricPrecision; text-rendering:geometricPrecision; image-rendering:optimizeQuality; fill-rule:evenodd; clip-rule:evenodd"
viewBox="0 0 10000 10000"
 xmlns:xlink="http://www.w3.org/1999/xlink">
 <defs>
  <style type="text/css">
   <![CDATA[
    .fil0 {fill:black}
   ]]>
  </style>
 </defs>
 <g id="Camada_x0020_1">
  <metadata id="CorelCorpID_0Corel-Layer"/>
  <g id="_2331388084592">
   <path class="fil0" d="M5446 4578c6,-14 8,8 -11,-19l101 24c-16,-21 -2,-8 -28,-17 46,-6 86,10 100,40 -10,20 -10,13 -21,28 0,-1 -1,-3 -2,-3l-16 -20 -66 22c-35,1 -22,8 -55,5 -52,-4 -24,12 -58,-4 -21,-11 -32,-18 -55,-34 4,-6 0,-3 12,-12 3,-1 9,-4 11,-6 5,-2 26,-10 26,-10 21,-5 38,4 62,6zm2967 5316l-98 0c-3,-3 -6,-6 -10,-8 0,3 0,5 0,8l-2044 0c-1,-3 -2,-7 -4,-12l-25 -47c0,-1 -1,-2 -2,-4l-27 -54c-23,-52 26,-22 14,-61 14,4 6,4 12,8 23,13 10,5 23,4 4,0 2,-14 13,5 7,13 3,1 4,20 51,-11 36,3 62,18 -12,-18 -16,-16 -20,-38l-24 -52c-21,-49 -11,-112 -32,-164l-7 -23c-4,-17 -2,-16 -7,-29 23,-13 23,-27 50,-37 16,13 20,26 39,30l-34 -118c-2,-51 -24,-101 -21,-140l33 -16c-19,-25 -30,-36 -33,-71 -5,-60 -36,-92 -55,-148 -8,-26 -23,-51 -22,-73l32 -22c7,-5 5,7 8,-5 1,-2 3,-2 5,-3 -3,-41 -7,-17 -18,-49l-32 -95c-6,-13 -14,-25 -20,-38 15,-29 8,3 13,-19 3,-18 -5,-15 -9,-20 -10,-14 -5,-4 -6,-16 -1,-14 7,4 -4,-16l-27 -59c-2,-4 -5,-9 -6,-12 -1,-1 -2,-2 -3,-4l-26 -72c-28,-53 -43,-46 -54,-95l35 -17c13,-4 23,2 33,9 65,46 52,33 117,57 18,-17 28,-31 56,-12 -2,-36 -74,-150 -97,-191l-28 -48c-10,-21 -1,-6 -4,-31 27,2 58,1 74,12 22,16 34,28 58,41l-36 -185c-19,-57 26,-58 85,-9l68 56c17,18 13,28 36,32 -2,-4 -7,-68 -11,-86 -6,-29 -18,-50 -20,-80 -3,-46 17,-54 -15,-79 -31,-24 -29,-22 -37,-61 10,-9 36,-15 57,-18 2,1 3,2 3,3 1,1 2,3 3,3 13,14 18,12 36,18 28,8 16,9 24,16 16,16 4,9 25,16 -3,-26 -70,-148 -50,-173 14,-9 39,-11 58,-5 17,6 17,18 30,25l34 12c30,2 34,8 34,8 1,-6 5,-1 5,-15 1,-40 -14,-33 21,-60 15,-11 6,-10 23,-16 15,23 -8,-22 2,9l24 33 19 -27c0,-39 -9,-75 -14,-113 31,-6 -4,1 26,-12 30,-12 60,-11 92,-16 -22,-23 -32,-49 -34,-92 22,-3 33,-5 61,-5 6,15 8,19 21,29 -11,-16 -19,-59 -9,-76 7,-12 -3,-1 8,-8 2,-1 3,-2 4,-2 2,-1 3,-1 5,-2 2,-1 7,-2 9,-3 16,-4 27,-6 39,6 5,5 17,29 22,36 4,-5 4,-7 10,-12l14 -18c0,-2 1,-8 1,-10 1,-7 0,-15 2,-28 6,-37 12,-28 -2,-61 -10,-24 -4,-17 -4,-31 0,-14 -1,-28 9,-37 25,-24 47,-3 64,11 24,20 50,22 75,54l35 33c23,-18 26,-33 64,-58l78 -68c9,-8 1,-2 9,-8 38,-31 73,-62 114,-85 45,-26 53,-46 84,-72l-39 -23c-59,-19 -85,-17 -103,-76 21,-17 32,-20 65,-15 -5,-16 -27,-67 -34,-82 -13,-25 -26,-37 -34,-74l28 -9 -20 -18 19 -21c1,-1 2,-2 3,-2 1,0 2,-1 3,-1 27,-9 -26,-1 7,-2 13,0 31,10 40,16 25,18 35,27 66,36 2,-29 -4,-39 -34,-36l1 -26c0,-1 -1,-2 -1,-3 0,-2 0,-2 0,-3 -12,-1 -13,2 -33,4 7,-28 7,-11 3,-23l-20 -20c-1,0 -2,-1 -3,-2 -1,-1 -5,-4 -7,-6 -2,-2 -7,-6 -12,-10 -20,-17 -51,-29 -62,-40 8,-12 -1,-3 8,-12 22,-18 22,-12 30,1 0,-29 -14,-19 -33,-37 -63,-56 -129,-111 -179,-179 -8,-10 -24,-21 -23,-32 0,-13 17,-30 27,-36 13,-2 93,50 112,62l49 35c15,10 31,32 47,35 -4,-21 -16,-19 -29,-36 -49,-62 -109,-113 -167,-166 -23,-22 -68,-34 -44,-72 -23,-6 -20,1 -29,-21 -8,-22 1,-38 22,-30 25,9 1,13 40,17l-6 7c0,1 -1,3 -1,3 -4,13 -5,4 3,11l24 -7c11,2 17,9 25,15 -4,-8 -10,-22 -11,-22 -20,-19 -95,-40 -106,-78 -5,-17 4,-30 -11,-44 -7,-8 -13,-12 -24,-19l-41 -24c-38,-14 -16,-27 -58,-51l-51 -24c-2,-17 0,-14 3,-27 -38,-4 -152,-14 -174,-26 6,-27 -4,-33 25,-40 26,-6 22,7 46,-13 -44,-18 -81,-40 -116,-58l3 -41 -22 -19c-17,-25 -9,-26 -39,-41l-47 -31c-11,-4 -15,-3 -21,-6l-71 -45c-3,-2 -13,-11 -17,-14l-49 -31c-5,-31 -1,-26 7,-49l108 21c-19,-10 -101,-46 -123,-49 2,-47 -16,-46 18,-68l-125 -28c-70,-16 -48,-20 -63,-44 -10,-16 -6,7 -14,-16 23,-35 34,-10 115,-5 -7,-26 -18,-26 -38,-24 -10,1 -14,-2 -26,-12l-81 -36c-2,-1 -6,-4 -7,-5l-66 -28c-31,-18 -58,-19 -85,-35l-6 -4c-20,-9 -44,-8 -63,-13 -35,-9 -57,-19 -96,-21 -20,-1 -93,-35 -127,-30l-56 10c-24,4 -36,-3 -57,-3 -33,35 -34,49 -55,86 -16,28 -83,100 -111,170l-34 101c41,1 59,9 95,-17 32,-23 43,-50 69,-29 -2,25 -2,12 -13,28l-6 8c13,-1 17,-1 29,-5 48,-15 39,-1 81,-18 5,-2 9,-3 18,-6l161 -52c13,-3 17,-5 37,-10 -3,16 0,11 -8,25 -9,17 -24,22 -38,35 28,15 91,5 119,0 -2,49 -64,56 -104,75 15,6 34,5 47,13l-24 42c-17,8 -34,5 -51,17 -10,14 1,-10 2,8 2,42 -21,46 -54,59 -35,13 -6,-1 -8,13 -7,0 -14,-1 -21,-2l-90 15c8,8 -2,1 14,10l43 15c15,3 12,-2 26,4l14 9c11,8 4,3 11,9 -3,18 -13,39 -25,47 -31,21 -79,11 -113,28 -6,3 -14,8 -23,13l-10 14c36,11 63,3 70,46 -69,13 -152,15 -222,16 29,21 16,-14 39,35l-102 14c-74,-2 -58,15 -98,20 30,25 109,33 61,88 41,17 43,-9 91,32 26,21 64,17 79,50 -22,43 -43,13 -84,46 0,0 11,7 12,7l120 74c18,14 19,16 13,41 -16,5 -18,1 -27,4l-34 13c-6,1 -11,2 -17,4 11,18 7,-1 19,22l-10 42c19,24 68,20 51,65 -19,21 -35,13 -65,19l-16 4c-7,1 -23,0 -37,9 27,27 53,30 36,62 -23,42 -96,22 -134,36l-14 8c13,13 12,8 24,16l72 36c0,-1 2,0 4,1 -3,43 10,62 -42,65 -36,2 -57,8 -98,3 12,22 8,8 20,26 -10,19 -11,10 -19,38 -15,-4 0,-6 -23,0l-71 26c9,20 15,14 25,40 -30,17 -11,11 -53,16 -43,6 -7,-1 -39,23 -31,-9 9,-13 -33,-5 -26,5 15,0 -16,-2l-56 12c-26,9 -47,11 -78,1 -1,0 -2,-1 -3,-1 -1,-1 -3,-1 -4,-2 -1,0 -2,0 -3,-1 -48,-15 -78,-11 -127,-8l30 32c-12,14 11,0 -13,13l-109 -15c-22,-5 -25,3 -50,1 -21,-2 -23,-6 -62,-2 8,4 30,12 34,15 7,5 10,9 11,18 2,35 2,7 -6,19 -17,21 -31,4 -49,2 -15,-2 -34,2 -58,0 36,64 -40,42 -85,45 22,10 38,19 46,39 -26,16 -23,12 -52,5 -21,-5 -91,-16 -106,3 -16,22 4,13 -26,18l14 15c1,1 2,2 3,3 7,8 7,6 14,14l-38 39c61,-22 23,2 68,-16 -1,37 -8,46 -35,65 -4,3 -14,9 -18,12 25,9 18,7 28,25 1,1 2,3 2,4 1,0 5,8 7,11 -117,10 -48,40 -153,48 -27,2 -28,7 -53,10l-5 25c-17,1 -40,2 -46,5l17 11c1,1 3,1 4,2 17,9 15,11 35,35 -23,15 -59,12 -94,11 -44,-2 -18,-8 -71,3l24 14 -12 55 18 -10c5,-3 16,-11 17,-11 1,-1 2,-1 3,-2l42 -12c25,-14 49,-31 78,-39 40,-12 56,-10 93,-30 33,-17 56,-16 91,-32l444 -293c11,-9 61,-40 75,-48 36,-18 50,-34 75,-46 54,-27 105,-51 162,-26 52,23 129,33 163,93l2 5c1,1 1,2 1,3 3,8 -3,-3 7,12 15,23 13,49 13,77 0,44 -2,54 -16,80 -14,26 1,34 -14,67 -16,34 -42,60 -65,88 -8,9 -5,5 -13,16 -41,59 -82,109 -138,155l-19 16c-23,30 -40,53 -74,77 -3,3 -6,4 -10,7 -32,26 -43,28 -78,46 -11,6 -1,0 -10,7l-97 55c-16,7 -28,7 -45,14 -26,10 -59,30 -82,40 -30,12 -61,19 -93,30 -17,7 -31,10 -49,15 -14,3 -31,9 -47,13 -46,10 -95,27 -135,51 -32,20 0,19 -40,18 -6,17 5,-1 -1,10l-9 9c-25,23 -81,57 -110,73l-39 31c-11,8 -17,16 -28,23l-346 268c-14,11 -17,13 -28,25 -34,34 -87,63 -125,85 -47,27 -79,58 -125,86 -26,17 -103,55 -125,81 122,34 213,-26 315,-19 -1,22 -1,21 -23,29 -17,6 -20,4 -38,7 -154,26 -90,25 -145,44 -21,7 -52,11 -78,16 -48,9 -143,45 -208,60 -26,6 -58,13 -80,14 12,46 11,44 -18,87 -29,44 -15,28 -25,79 -11,51 -39,65 -63,102 -13,18 -26,31 -34,53 32,-16 56,-21 84,1 -5,20 -15,33 -28,50 -7,9 -12,17 -17,24 -17,22 -34,32 -51,60 -8,13 -17,31 -26,44 -10,14 -10,10 -19,22l-100 157c13,10 18,12 28,22 -5,18 -12,27 -15,38 -4,18 2,18 -7,39 -27,61 -84,111 -116,165 -33,-3 -50,6 -74,-21l-10 -8c-18,-23 -18,-174 -16,-218 1,-26 4,-75 4,-109l6 -98c-8,-71 -7,-76 -5,-150 1,-27 6,-34 9,-55 5,-32 -20,-55 -13,-96 44,-17 20,16 38,-37 30,11 24,25 36,49l9 -26c1,-85 5,-39 18,-99l22 -97c2,-4 7,-1 14,-24 -19,-12 -53,-13 -76,-9 -37,7 -39,5 -77,0 -124,-17 -84,-1 -142,-5 -7,-12 -5,-10 -8,-16l-36 -12c-3,1 -14,2 -20,-2 -9,-8 0,-1 -9,-12 -13,-14 -31,-12 -41,-26 6,-17 18,-21 37,-23 21,-2 41,6 55,0 19,-10 38,0 59,-7 59,-22 98,-12 151,-38 50,-25 87,-65 137,-91 7,-4 10,-5 15,-8l60 -45c8,-7 20,-19 27,-25 47,-43 101,-118 140,-171 59,-76 26,-33 82,-75 15,-11 9,-17 22,-29l11 -31c1,-1 2,-3 2,-4 7,-12 1,0 9,-15 0,-1 7,-20 7,-20 21,-74 19,-43 53,-96 3,-3 5,-8 9,-14 29,-41 20,-46 36,-62 -51,-5 -59,-2 -102,20 -23,11 -56,42 -64,64 -20,57 -21,42 -70,77l-70 35c-1,-2 -3,1 -4,2 22,14 35,8 57,2l-3 21c-40,2 -65,-20 -95,-26 -54,-10 -59,8 -116,5 -12,18 -13,30 -24,39l-58 63c-34,-10 24,11 -9,-6 -12,-7 -1,2 -18,6l-24 -41c-6,-16 -11,-35 -17,-46l-36 18c0,0 -2,1 -3,1 -21,10 -27,16 -50,14 -34,-48 -16,-70 -20,-130 -35,5 -41,46 -53,78 -16,44 -9,-1 -30,35 -7,11 -5,27 -9,40 0,1 -1,3 -1,3 -12,32 -9,48 -11,52 0,0 -6,7 -7,9 -76,99 -25,65 -55,103 -18,-6 -14,0 -16,-24 -2,-28 5,-70 6,-97 0,-23 30,-111 38,-144 2,-9 -2,7 2,-10l24 -121c2,-16 4,-45 8,-59 -16,9 -5,8 -22,22l-96 -59c-7,20 3,4 -14,14 -1,0 -14,5 -19,7 -34,-20 -44,-36 -59,-73 -9,-21 -8,-27 -14,-50 -3,-15 -11,-33 -16,-48 0,-1 -1,-3 -1,-4l-2 -10c-42,-189 -41,-106 -62,-153 40,19 76,29 112,49 1,1 3,2 4,2l21 16c1,1 6,2 8,3l685 197c57,16 193,14 219,23 28,10 104,13 135,-1 10,-4 1,-4 27,-14 10,-3 15,-4 26,-9l231 -84c22,-7 37,-16 57,-25l39 -14c9,-3 0,1 9,-4l33 -17c4,-2 9,-4 12,-6 18,-8 32,-14 52,-24l76 -35c1,0 3,-1 4,-2l53 -30c35,-17 50,4 86,-13 -15,-7 -28,-13 -16,-18 -44,13 -62,19 -111,18 -1,2 -5,11 -6,12 0,0 -1,1 -2,2l-34 8c-24,11 18,-12 -9,8 -9,7 3,1 -8,4l-156 14c-10,-1 -8,0 -20,5 -26,12 -63,8 -89,9 -22,0 -77,38 -104,49 -19,-13 -23,-25 -41,-38 11,-35 26,-69 50,-87l23 -19c1,-1 2,-2 4,-2l23 -6 0 -23c-8,7 -11,15 -26,10 -13,-4 -4,-8 -8,-21l-15 -47c30,-7 69,-21 92,-35 -27,-15 -49,-17 -53,-54l31 -12c7,-17 -12,16 3,-8 21,-32 75,1 103,-25 -23,-12 -45,-1 -50,-45 19,4 109,13 128,5l-30 -45c-1,-1 -3,-4 -4,-5 -7,-15 -7,10 -4,-18 27,-12 82,12 90,18 10,-17 9,-20 24,-32 -15,-5 -13,-2 -18,-12 -8,-19 4,15 0,-7 -2,-12 -13,-26 -15,-44 31,-6 75,-1 105,6 -6,-17 -15,-38 -26,-47 42,-47 129,-41 163,-77 -25,-6 -40,-4 -56,-24 7,-21 4,-6 17,-22 0,-1 1,-2 2,-3 7,-9 18,-5 28,-10l-5 -20c-1,-1 -1,-3 -1,-4 -5,-26 -10,-16 -29,-43l58 -32c-23,7 -32,12 -57,3 -1,0 -3,0 -4,-1l-5 -2c-17,-9 -18,-9 -25,-26 36,-8 75,-32 115,-44l-22 -22c0,-1 -2,-2 -3,-3l-17 -18 50 -35c15,-11 3,0 13,-12 -19,-11 -10,2 -21,-14 -1,-1 -2,-4 -3,-5l-6 -14c30,-4 41,-12 69,-22 -13,-9 -12,-4 -27,-13 -24,-13 -52,-31 -63,-53 18,-17 78,-58 90,-76 -31,-29 -81,-10 -106,-42 -34,-46 -22,-65 8,-92 -20,-19 -37,-12 -58,-29 -15,-12 -16,-15 -15,-35 -40,0 -19,3 -52,-16 14,-23 14,-11 6,-35 15,-4 14,2 27,-3 -13,-26 -3,-5 -37,-14 -17,-5 -23,-13 -40,-17 -23,-4 -15,2 -42,-12l-23 -13c-2,-1 -7,-3 -8,-4 -18,-11 -6,-3 -19,-17 0,-1 -1,-2 -2,-3 -25,-26 -52,-45 -74,-73 -5,-7 -8,-11 -13,-16l-39 -54c-7,-10 -7,-7 -14,-16l-12 -16c-11,-20 -26,-59 -38,-79 -5,-9 -16,-25 -24,-36 -17,-25 -11,-6 -28,-27l-143 -392c-3,-10 -13,-115 -31,-156 -6,-13 -11,-28 -16,-42 -12,-31 -16,-64 -26,-90l-31 -74c-38,-1 -71,12 -96,14 -62,6 -109,21 -164,41l-224 92c-34,11 -58,28 -95,39 -31,9 -13,-9 -44,15 -19,15 -24,10 -44,21l-56 27c-23,14 -45,33 -70,37l-98 50c-7,3 -7,2 -13,5l-127 67c-2,1 -1,-1 -8,4 -19,15 8,-4 -9,10l-96 59c-17,14 -34,19 -50,30l-76 55c-23,19 -35,37 -69,59 -60,39 -54,13 -84,16 -71,6 -27,-8 -99,-16 -36,-3 -38,-17 -68,-30 -65,-30 -125,-69 -182,-110 -86,-62 -65,-72 -102,-157 -7,-18 -9,-11 -16,-35 -5,-20 0,-29 -4,-48 -8,-35 -16,-77 -24,-112 -10,-44 -19,-56 -17,-99 4,-64 -29,-214 -19,-350 2,-41 8,-82 11,-119 8,-102 -10,-101 18,-220l-7 -4c-25,-16 22,19 -7,-5l-20 -21c-86,-80 -60,-16 -48,-158 5,-55 35,-145 45,-206 7,-46 5,-51 1,-89 21,-25 18,-13 37,-53l44 -57c1,-1 -10,-6 16,-8 41,-1 -23,18 92,-7 33,-7 69,-14 106,-18 57,-7 124,4 178,8 154,12 317,42 465,78 60,14 87,22 142,46l291 136c107,61 95,68 244,130l37 15c41,-2 4,-2 75,36 59,32 138,42 200,25 36,-10 37,-6 78,1 15,2 11,0 22,1 29,2 49,15 74,19 43,8 73,-4 117,2l62 7c33,6 21,2 44,-5l66 -2c32,5 11,13 73,12 20,0 27,4 51,2 70,-5 153,-1 218,-2l114 -2c26,-4 35,-14 61,2 1,-1 2,-3 2,-4l8 -8c0,0 2,-1 2,-1 4,-1 8,0 14,2 68,25 74,-2 154,7 22,2 10,6 42,7l514 48c30,6 54,11 83,19 51,14 114,22 167,38 27,8 48,18 79,25 31,7 49,5 80,20 25,11 115,54 141,45 -10,-15 -54,-19 -32,-49l28 -69c-38,-26 -69,8 -109,9 -23,1 -41,8 -59,2 3,-21 -8,-11 5,-42 7,-17 7,-11 7,-21 2,-31 -4,1 -3,-17 1,-21 0,0 7,-15 1,-1 2,-3 2,-4 1,-2 2,-3 2,-5 8,-20 14,-33 28,-47 -25,-11 -38,-35 -63,-46 -33,-13 -54,18 -48,-45 -22,-1 -13,3 -27,-7 2,-24 3,-13 11,-36l-49 -10c-3,-4 -1,-4 -9,-7 -17,-9 -17,1 -27,-10 -9,-11 -9,-18 -4,-31 6,-18 18,-22 18,-37 -2,-26 -3,9 -3,-21 0,-18 8,-35 15,-47l7 -11c18,-34 63,-92 73,-122 -15,4 -32,4 -51,7 -32,6 -16,7 -40,22 -19,5 -29,-8 -46,-7 -19,0 13,8 -7,0 4,-35 1,-72 4,-107 5,-55 11,-49 -14,-78 2,33 -6,46 -24,62 12,10 11,5 17,23 -15,-5 -10,-1 -22,-10 2,8 27,29 -37,28 -22,-39 -6,-24 -14,-62 -26,11 15,23 -32,17 -32,-4 -3,-4 -30,-20l-5 25c-25,-15 -22,3 -30,-20 0,-1 -1,-3 -1,-4 0,-1 0,-14 0,-18l-4 -78 -20 9c-15,6 -22,15 -31,30 -9,15 -2,9 -4,27 -2,23 -2,21 -12,34 -44,-1 -40,-50 -49,-83 -5,-1 -12,-3 -14,-3 -30,-7 -44,48 -55,74 -15,36 -40,26 -44,1 -3,-25 12,-47 15,-72l-44 10c-14,-12 -4,-6 -15,-17l-16 -12c0,-1 1,-2 1,-3 13,-41 -26,-70 -34,-75 -36,32 -41,56 -105,52 8,-24 18,-19 10,-38 -18,-40 -35,-34 -1,-80 9,-12 22,-22 29,-29 -24,-54 -16,-27 13,-70 16,-23 45,-36 46,-67 1,-24 -10,-14 16,-35 25,-20 42,-53 75,-56 16,-1 3,-4 17,3l-7 -71c0,-1 0,-2 0,-3 0,-13 -7,-9 5,-21 19,-18 29,-13 53,-7 9,-52 -5,-89 -2,-108 1,-3 4,-11 7,-15 24,-29 73,-12 106,-15 1,0 3,-1 3,-1l29 -4c12,-2 15,13 6,-40 76,-22 25,-47 46,-112 15,-46 6,-54 -3,-30l-15 46c-1,2 -2,3 -2,4l-13 18c-31,49 -17,25 -22,26l-40 0c-1,-2 -2,-3 -2,-4l-16 -29c-14,22 0,10 -17,20l22 26c-37,15 -66,23 -90,-14l2 27 -29 7c14,22 7,11 4,37 -47,-2 -47,-20 -61,-47 -16,27 13,-8 -5,24 -12,23 8,-10 -8,9 -14,18 0,12 -11,29 -10,14 -4,-3 -19,15 -24,-8 -6,-13 -34,-20 -6,20 -4,10 -3,26 -19,3 -42,8 -60,9l-12 -37 -16 116c-18,57 5,61 -31,62 -9,-17 -6,-47 -4,-71 -10,11 -3,0 -8,18 -1,1 -2,17 -2,21 -53,16 -50,-2 -64,48 -8,-11 -5,-9 -20,-14l-2 78 -23 4c-8,-12 -7,-26 -7,-42 -22,12 -17,9 -40,-3 -7,55 4,62 -36,57 -60,-8 -47,61 -69,100 -31,4 -45,-13 -70,0 -11,11 6,28 -22,36l-48 22c-17,-9 0,4 -9,-10 -9,-14 2,4 -5,-9 -5,-10 1,-6 -9,-20 -16,22 -3,46 4,58l-22 13c-33,23 -44,0 -58,-29 -36,13 15,-2 -20,20 -16,-26 0,-9 -37,-16 -2,-32 -8,-87 -22,-124 -7,-20 -7,-20 -21,-25 -8,19 -8,36 -15,53 -11,25 0,11 -17,18 -15,7 -17,5 -32,5l-35 -87c-25,33 -1,38 -55,36 14,45 -22,43 -41,45 1,-22 3,-35 4,-57l11 -42c4,-13 2,-31 5,-49 3,-15 4,-17 5,-23 0,-1 2,-16 3,-20 7,-36 27,-62 39,-96 6,-17 11,-27 17,-48 5,-18 2,-29 -4,-45 33,-21 1,6 20,-2 13,-5 1,2 0,-12l9 -45c8,-28 15,-71 29,-99 2,-4 5,-11 7,-16 3,-7 2,-4 5,-13l55 -121c7,-16 11,-34 19,-48 24,31 18,36 36,74l16 -13c25,-20 43,-47 52,-76 3,-12 1,-13 5,-24 8,-24 28,-25 41,-42 1,-1 4,-4 5,-5 6,-9 4,-5 6,-13l26 -73c22,9 11,12 37,17 -11,27 -15,5 -3,26l16 -32c7,10 8,10 15,24 12,-14 18,-38 25,-56 16,-35 27,-46 45,-79 12,-23 44,-40 70,-45 6,9 5,8 13,16l22 48c27,-16 36,-58 15,-79 33,0 15,-1 29,-8 1,0 3,-1 4,-1 0,0 1,-1 1,-1 1,0 2,-1 2,-1 1,-1 3,-3 5,-6 8,-6 1,-4 11,-6 2,-1 9,0 10,0 11,3 25,17 33,27 6,7 1,2 8,10 8,9 11,8 21,20 14,16 23,29 32,45 16,-38 20,-82 36,-117 15,-8 6,-1 16,-4 1,-1 3,-1 5,-1 1,-1 3,-1 4,-2l54 -15c0,0 2,0 3,0l15 4c13,7 -5,3 9,5l9 -70c9,0 3,6 19,-6 14,10 10,11 28,18 3,-13 -23,0 11,-17 29,-14 8,-10 35,5 17,-29 16,-9 21,-56l-4 -80c0,0 0,-1 0,-2 -8,-30 -8,-35 -3,-71 9,4 3,3 11,8 15,11 -8,7 4,3 0,-23 4,-55 -11,-63 -4,15 0,20 -9,36l-9 15c-14,21 -10,25 -38,29 -24,3 -28,4 -32,-17l5 -36c8,-25 7,-34 5,-63 -29,18 -13,35 -57,37 -31,1 -32,-13 -60,-22 5,-20 -4,-13 12,-19 -36,-20 -16,13 -22,-42 -1,-12 0,-9 -1,-20l-24 -170c-8,-29 -16,-62 -25,-88 -13,-38 -10,-61 -22,-95 -25,-72 -33,-146 -64,-215 -9,-19 5,2 -2,-33l-12 12c-9,-90 -35,-121 -42,-199l-12 1c-24,-7 -38,-88 -42,-113 -10,12 -17,16 -28,28 -11,-14 -17,-41 -26,-54 -6,23 -13,38 -33,48 -6,-12 -7,-40 -19,-61 -1,-1 -2,-2 -2,-3 -24,-38 -18,-15 -22,-16l-5 -36c-28,4 -9,2 -21,8 0,0 -9,5 -12,7l-6 35c-37,6 -24,-2 -44,25 -11,-2 -11,-5 -26,-10 1,15 -4,53 -8,69 -7,27 -18,19 -36,25 7,38 -6,59 -12,92l0 39c2,11 11,15 19,21 -9,19 -2,1 -9,14 -10,16 -10,55 -26,79 -8,12 -15,15 -17,27l-23 83c-4,16 -1,28 -14,46 -18,24 -21,14 -15,49 5,28 8,34 6,67l-25 -3c8,53 -7,18 -5,40 1,9 12,-8 -1,22 -6,14 -10,-3 -6,18 5,29 8,-7 9,19 1,29 -11,29 -3,77 -52,37 -51,19 -69,13l-7 21c-4,21 2,48 -4,68 -6,21 -13,19 -16,46 -1,14 -4,25 -4,38 -2,40 11,15 10,54 -1,15 3,22 8,33 -28,17 -22,-4 -32,22 -2,3 -5,33 -7,44 -7,-11 -4,-28 -13,-38 1,50 -3,14 -13,53l-12 63c-12,42 15,62 -18,83l-42 27c6,15 11,39 5,52 -9,22 -11,-2 -11,42 -1,25 -9,60 -21,85l-5 8c-12,-27 -13,0 -15,-47 -7,-170 25,-238 29,-325 0,-1 -1,-8 -1,-9 1,-11 11,-16 12,-16 15,8 12,10 29,15 -7,-22 -7,-7 -3,-34l3 -75c0,-1 0,-2 0,-2 0,-1 1,-2 1,-3l19 -139c20,-4 16,-1 33,4l7 -109c-2,-15 -5,-59 0,-72 5,-12 4,-6 8,-15 6,-14 3,-12 6,-22 12,-29 15,-2 27,-21 14,-23 -8,-24 32,-43 -5,-13 -7,-13 -13,-26 5,-4 10,-5 18,-10 2,-1 6,-4 7,-5 13,-10 17,-26 18,-46 1,-30 -8,-57 -11,-88 7,-4 6,-3 14,-9 7,-6 4,-4 9,-9 -8,-17 -13,-62 0,-80 8,-12 8,-1 9,-6 0,-1 1,-1 2,-1 -5,-11 -4,-4 -6,-22l6 -42c1,-16 18,-74 13,-103 -10,-57 2,-31 6,-62l-3 -14c-4,-13 -8,-32 -8,-41l17 -67c7,-17 2,-7 7,-22 31,-89 18,-90 70,-176l44 -97c9,-21 -5,8 8,-11l7 -13c0,-1 1,-3 2,-4 21,-33 31,-46 72,-62 48,-19 24,-23 80,-16 47,7 49,-2 85,13 7,3 6,3 12,6 70,33 71,15 139,83 27,27 8,-5 32,39 37,68 -4,31 1,75 7,-3 15,-8 30,-12 4,7 16,28 19,38l23 36c20,21 -1,64 13,80 14,16 -8,1 8,3 8,1 8,-12 16,7 8,17 9,77 4,94 -6,24 -8,13 -5,42 9,-10 19,-13 29,-10 8,16 7,51 8,73 34,-12 42,-7 47,27 7,39 3,93 0,128l8 66c0,1 0,2 0,2l3 8c6,16 6,-4 5,24 23,-11 34,11 49,17 10,150 6,81 21,120 13,32 -11,59 23,77l15 7 -4 53c13,-14 11,-23 39,-4l23 11c8,46 -6,5 -11,35 -4,18 3,54 -2,77 -6,28 -9,-22 -6,24 2,39 25,49 32,84 0,1 0,3 0,3 0,1 0,3 0,3 0,2 -2,4 -3,14 -1,14 2,24 6,38 20,-7 18,-5 31,3 6,27 1,48 3,74 1,1 1,3 1,4l2 7c7,15 26,23 44,76l2 7c0,2 0,7 1,8 2,30 -6,64 19,76 0,-1 1,-3 1,-4l0 -34c-7,-55 41,-55 44,-2 3,55 6,27 29,39 7,45 -8,51 11,78 11,16 11,11 20,27 38,67 55,-12 62,161 11,-4 29,-11 37,2 11,20 -9,11 -17,36l56 73c22,27 24,48 60,61 -7,27 8,-17 -6,7 0,1 -2,3 -2,4 -3,24 3,9 8,12 19,-29 -10,-44 -19,-73l12 -21c47,8 63,48 98,67 26,15 10,13 42,33 17,-5 18,-13 29,-24 25,16 33,46 61,55 25,-18 -5,4 10,-13l5 -4c0,-2 1,-2 2,-2 17,9 10,-1 9,30 1,-1 2,-3 3,-4l12 -25c13,10 26,22 40,35 8,7 12,12 18,17 12,13 4,7 18,17l29 -17c52,50 45,33 80,61l37 27c17,-12 10,-5 14,-27 33,3 26,6 44,-12 16,15 63,32 87,46 -6,-23 -12,-56 25,-43 29,10 12,22 45,40 4,-30 -6,-17 6,-40 31,-9 41,8 76,11 5,-36 1,-1 -4,-32 38,20 4,-11 39,3 -5,-22 0,-31 15,-51l20 -12c34,-3 68,11 89,-27 15,-30 57,-86 47,-121l19 -7c1,-1 3,-3 4,-3 1,-1 5,-6 6,-8l44 79c13,-9 2,2 15,-13 12,-14 10,-26 16,-42 12,-29 24,-18 33,-21 1,0 2,-1 3,-1l51 -49c29,-57 -3,-59 48,-73 9,-3 4,-1 13,-4 1,-1 8,-4 10,-5l15 40c4,16 -2,11 9,22 10,-26 24,-41 30,-75 6,-26 2,-42 22,-68 7,10 -10,19 14,25 19,4 21,-27 43,37l4 12c0,1 1,5 1,7l2 5c1,1 2,2 2,2 8,7 5,4 16,6 1,-2 -1,-16 11,-32 22,-31 -7,-21 30,-46 10,-7 20,-30 23,-45l31 11c10,-19 1,-12 16,-29 35,10 24,6 45,29 10,-20 29,-43 16,-60 -14,-20 3,9 -6,-6 26,-16 44,-40 59,-67 1,0 1,-2 2,-2 11,-19 21,-16 39,-18 12,-22 24,-59 46,-73 15,10 18,18 30,21 2,-11 3,-23 5,-33 4,-28 14,-32 31,-55 28,-40 35,-64 72,-97 15,-14 11,-28 24,-47l7 -11c10,-11 8,-4 15,-15 7,-11 -2,1 6,-16l38 -32c1,-22 -4,-32 2,-56 14,-50 12,-9 18,-10 3,-35 12,-37 30,-59 3,-4 8,-9 12,-11 17,-11 13,1 68,-42 -8,-24 -18,5 -3,-22l78 -98c14,-25 9,-33 44,-32 -10,-24 10,17 -6,-8 -3,-4 -1,7 -4,-9 12,-7 8,-5 15,-19 20,-35 42,-46 56,-73 1,-2 11,-19 12,-21 14,-17 22,-30 39,-19 2,-23 -6,-54 34,-37 -4,-25 -9,-22 14,-39 32,-22 -27,18 8,-4l11 -7c1,-1 2,-2 3,-3 11,-9 7,-7 14,-15 22,-28 46,-38 67,-62 21,10 9,-2 17,19l2 -19c0,-1 0,-3 0,-4 1,-3 1,-10 2,-15 23,-8 8,-5 32,-3 -3,-29 -4,-19 13,-34l113 -74c14,-8 18,-12 29,-18l88 -52c17,-11 13,-3 32,-15l42 -29c1,0 3,-1 4,-2l39 -24c19,-10 12,-7 29,-18 18,-12 39,-32 65,-26 12,3 21,11 32,16 18,8 20,4 38,9 42,12 20,38 48,40 32,2 29,-22 43,32 17,64 -6,59 34,142 52,107 24,77 37,148 7,39 9,54 -1,86 41,40 25,43 33,93 5,34 -2,0 17,32 12,20 4,35 3,56l9 48c0,1 2,2 2,3l25 139c3,21 -3,13 0,35 3,27 11,36 6,58 -5,18 5,25 -6,52 0,1 -1,3 -2,4l-5 18c1,0 23,-20 23,25 1,27 -13,86 7,106 16,15 19,-20 48,12 22,24 4,33 3,65 -1,32 3,4 10,24l-13 29c0,1 0,2 0,3 0,1 0,3 0,4 1,6 1,8 2,12l-6 29c0,1 -2,2 -2,3 -7,8 7,-4 -7,6 31,28 33,5 26,74l4 48c0,0 1,2 1,3 0,1 1,2 1,3 0,1 0,3 1,3 5,44 7,93 -10,138 -16,43 4,-6 -1,40 -2,22 -2,47 -11,86l10 4c10,9 8,22 12,32 13,32 6,76 12,116 5,27 11,11 9,39 -1,14 -6,27 -4,41 3,24 9,4 1,36 -7,25 -10,7 -3,38 13,56 -8,51 -7,73 2,21 11,14 20,26 19,26 -8,-19 3,6 20,45 -23,69 -40,106l-4 8c-3,11 -2,20 12,30 -10,30 2,-7 -10,15l-27 44c6,8 3,4 9,11l40 42 -34 41c-17,13 -7,25 -7,41 1,16 -6,2 -4,32 30,-33 59,-4 46,30 -12,29 -14,2 -24,27l-54 78c-12,12 -21,29 -36,40 -11,8 3,0 -11,6 -2,1 -3,1 -5,2 -32,13 -26,31 -49,38 -52,16 24,-39 -116,54 -1,1 -2,2 -3,2l-33 26c-1,1 -2,2 -3,3 -15,13 -24,14 -40,30l-14 16c0,1 -8,9 -10,11 -11,-14 2,-2 -7,-19 -11,26 1,27 -28,31 -20,3 -49,6 -64,-4 4,-14 -3,-1 9,-13l17 -12c21,-15 10,-9 21,-44l47 -95 81 -94c1,0 2,-2 3,-3l15 -19c45,-47 -1,-26 60,-74 21,-16 25,-35 25,-57 2,-37 29,-45 41,-76l63 -181 15 -300c-12,10 -15,25 -29,4 -10,-15 -5,-21 -1,-44 3,-18 -4,-66 12,-79l-39 4c-9,-17 -4,-25 -20,-33l-8 -3c-63,-27 -44,-116 -38,-176 2,-20 -2,-26 0,-50 9,-83 31,-110 14,-188 -4,-21 -4,-23 -24,-32 -27,-12 -16,-10 -32,-29 -13,-16 -19,-15 -33,-31 -27,-31 -18,-70 -24,-105 -1,-7 -3,-12 -4,-24 15,-10 5,8 16,-12 -1,0 -3,0 -3,-1 -8,-4 -7,5 -7,-10 0,-6 2,-10 2,-10 0,-1 1,-2 1,-3 0,0 1,-2 1,-3 1,-7 0,4 0,-5l-1 -13c-9,-110 -43,-95 -53,-101 -7,-26 -13,-34 -19,-55l-24 -93c-1,-2 -1,-3 -1,-5 -1,-5 -2,-10 -3,-15 -4,-14 -13,-36 -15,-55 -5,-50 -7,-98 -26,-142 -13,-29 -30,-42 -20,-75 -10,7 -4,2 -15,11 -28,24 -35,46 -79,20 6,-20 1,-24 5,-41 7,-41 4,2 16,-29l-18 -25 -21 29 -42 -9c1,-24 -1,-49 -4,-66 -1,1 -3,2 -4,3 0,0 -2,2 -3,3l-15 15c-6,7 -11,14 -16,19 -9,9 -13,9 -19,16l-52 77c-8,17 1,6 -11,24 -26,39 -59,5 -85,50l-31 63c-1,2 -9,18 -11,21 -23,-1 -10,0 -29,-15 -7,19 -21,24 -29,36 -16,26 -15,48 -25,62 -9,13 2,-3 -4,25 -3,14 -15,39 -18,45l-87 -17c-13,27 26,5 5,47 -23,-5 -20,-20 -35,-36 0,0 -6,7 -8,10l-42 69c-50,98 -31,71 -52,170 -7,34 -8,10 -12,40 -9,60 -17,48 -67,35 -32,33 -11,54 -38,72 -7,12 7,2 -5,-2l-30 -4 6 13c0,1 1,2 2,3 3,10 7,-11 2,12 -4,17 -5,1 -5,1l-14 -10 0 38c-12,-4 -18,-4 -26,8 0,0 -1,2 -1,2 0,1 -1,3 -1,3 -1,1 -1,3 -2,3 -3,6 -2,3 -5,14 -8,25 -17,17 -19,47l-34 -3 -34 43c-7,9 -3,5 -9,13l-14 16c-1,1 -1,3 -2,4 -6,9 0,19 -21,14 -9,-2 -3,3 -7,-5 -4,-9 -1,-6 8,-16l13 -12c13,-11 14,-17 22,-35 -16,4 -27,22 -40,35 -5,4 -7,8 -10,12 -23,-3 -4,11 -20,-14l-11 37c-6,9 -6,-2 -12,22 -13,-12 -11,-23 -21,-36 -5,5 -5,5 -11,11 0,1 -2,2 -2,3l-28 30c-15,14 -21,27 -27,44 -15,4 -6,-1 -17,3 -56,19 -109,107 -132,116 -24,9 -35,16 -44,45l-22 -17c8,13 7,23 -2,32l-8 9c-1,1 -1,2 -2,3 0,1 -1,2 -1,3 -7,18 1,19 3,39 3,26 -9,37 -11,62 -1,19 4,9 1,20 -4,16 8,-4 -3,4 -1,0 -4,0 -6,1l9 29c14,-5 14,-9 23,-6 45,17 27,64 18,78 -36,54 8,27 29,56 1,-1 2,-3 2,-4l13 -17c0,-2 1,-3 2,-4 5,4 17,15 19,19l4 29c24,-1 13,-5 29,7 12,9 14,28 16,35 0,1 7,15 8,17 26,-7 0,-7 28,-4 -6,34 4,6 19,57l44 11 -16 48c20,-7 29,-14 42,-24 1,-1 2,-2 3,-3 1,-1 2,-2 3,-3l9 -8c16,-11 2,-5 20,-8 20,32 -17,56 27,81l-9 41c34,-7 22,-25 55,-39 33,-12 -7,6 24,-1 7,-2 9,-8 24,-11 23,61 39,58 16,129 -8,22 -12,50 -14,74 -2,33 -13,42 -17,69 6,-10 7,-13 15,-24 22,-27 15,-42 50,-60 17,43 4,19 0,60 23,-22 12,-55 51,-63 20,27 6,24 -4,53l27 -1c7,-12 64,-158 66,-174l-53 5c0,-11 0,-24 0,-34 1,-22 21,-35 34,-60 13,-26 24,-74 44,-90 -3,-1 -10,1 -12,1 -12,-1 -5,1 -13,-4 3,-26 25,-83 38,-99l-20 -9c-10,-6 -12,-4 -15,-14 -7,-19 39,-130 67,-143 -2,-16 -8,-6 -10,-18 -1,-3 -3,-2 -4,-3 24,-4 15,1 28,-9 -36,-8 -19,9 -26,-15 0,-15 6,-13 3,-28 -3,-20 -3,-15 8,-31 -12,-1 -8,-2 -13,-4 -3,-2 -20,-10 -27,-25 12,-26 37,-45 53,-68l34 -43c16,-18 4,-3 14,-22 9,-18 -4,-1 11,-17 1,-1 4,-5 5,-6 1,-1 3,-2 3,-3 10,-8 30,-18 37,-32 13,-26 -8,6 -2,-32 3,-20 8,-34 26,-39l25 -4c5,-22 -1,-27 19,-46l9 -9c13,-11 29,-14 32,-34 0,-1 -1,-11 0,-15 9,1 0,-1 7,2l9 -27c38,-4 27,11 59,-52 6,-12 5,-11 12,-23 18,-27 44,-63 67,-90 16,2 21,6 31,10 28,13 46,4 46,26 0,14 -5,14 -1,20 39,-34 23,-30 70,-27 7,-34 43,-66 71,-79 17,-9 -3,2 11,-6 23,-16 18,2 52,1 22,-2 4,-8 22,4 8,6 8,7 13,15l-46 100c-4,7 -5,11 -8,20l-52 124c-8,14 -33,41 -22,65 25,-23 -1,-15 25,-30 18,-10 0,10 10,-6 14,-20 15,-27 35,-25 1,0 3,0 4,1 17,2 15,-4 31,8 0,18 -13,42 -18,70l-1 15c0,0 1,3 1,4 32,9 35,-63 91,-38 16,26 4,29 -11,52 -30,45 -42,93 -74,136l-43 80c-7,14 -3,9 -13,22 -17,22 -37,44 -48,68 -3,6 -8,17 -11,24 25,-8 20,-14 44,0 12,7 13,14 12,28 -12,-11 -4,-8 -25,-9 13,9 7,11 3,25 0,1 -1,3 -1,4 -3,9 0,26 -4,39l-10 21c-10,13 -26,22 -9,37 32,-3 2,-9 30,-13 22,27 -1,17 -9,36 21,1 13,-8 40,0 26,7 10,11 33,18 -4,32 -36,56 -50,86l-22 -7c13,11 8,-8 7,20 -1,26 -45,85 -61,104 -28,31 -41,78 -77,102 10,35 30,14 -3,51 -16,19 -24,31 -38,50l-20 33c-11,24 -42,59 -28,81 18,-9 7,-25 29,-33 18,-6 2,16 16,-25 9,-28 50,-48 56,-7 8,-11 16,-11 24,-6 2,11 -10,29 -17,40l-65 124c11,2 16,-3 17,-6 8,37 5,-1 23,31 -18,40 -58,101 -58,132 -1,40 -38,88 -56,124 -10,21 -3,44 -18,64l-37 63c-2,4 -13,25 -14,31 -40,121 -32,50 -19,89 -14,12 -13,28 -20,49 -17,-3 -15,-8 -19,-16 -14,14 -2,4 -8,18 -1,1 -2,3 -2,3l-12 17c-3,4 -6,11 -8,16 1,-1 15,-9 16,-9l23 5c1,0 3,0 3,0 18,5 -5,-3 10,2 23,9 7,27 2,47 19,-8 12,-7 39,-8 -4,16 3,27 -15,46l33 6c4,33 -13,39 -14,67 9,-7 32,-15 47,-24 22,-12 29,-20 43,-1 9,13 -4,29 -12,44l-33 94c-1,3 -18,9 -17,35l16 -8c1,-1 2,-1 3,-1l5 -3c32,-21 24,-15 64,-26 34,-10 1,-2 27,-13l32 25c1,-1 2,3 3,3 12,-19 7,-14 14,-33 24,-6 46,-6 70,0 2,-17 0,-8 8,-21 10,-17 21,-22 39,-32 2,-1 10,-6 14,-8l12 -9c1,-1 2,-1 3,-2l33 -23c7,-5 6,-4 14,-9 13,-10 9,-10 24,-24 1,-1 5,-4 6,-5l44 -35c13,9 10,15 12,19l54 -31c20,-8 34,-5 39,-18 8,-18 11,-10 20,-14 15,-7 8,-5 20,-18 15,-16 38,-25 42,-48 -23,9 1,-1 -16,9l-31 22c-15,10 -40,15 -64,10 2,-29 9,-21 34,-40l86 -66c22,-19 14,-34 23,-53 18,-13 15,-5 29,-12 18,-9 7,-2 21,-19 27,0 29,2 53,8 25,6 20,4 41,18l-63 83c-9,30 -20,30 -27,45 -12,31 10,9 -24,41 -4,5 -35,43 -37,46 -37,61 -15,19 -38,37 -9,7 -3,2 -8,9 -5,5 -12,18 -16,26 -5,11 -22,46 -24,56 19,-9 25,-14 40,-29 47,-48 24,-13 59,-19 15,-3 11,6 10,22 -3,33 -2,-14 -2,11 0,11 5,11 -3,21 -43,57 -75,52 -130,143 -24,39 -36,41 -42,77 26,12 32,3 47,7 14,4 6,3 10,6l23 11c-13,43 -34,76 -57,116l-79 116c21,36 25,-8 14,50 -5,24 -22,41 -13,64 17,-13 19,-42 38,-54 32,36 9,92 -15,132 -31,52 -34,86 -59,131 9,18 12,12 29,27 -1,39 -5,17 -13,38 -6,15 -7,-1 2,9 5,6 6,7 7,6 1,-1 3,2 4,3 -18,3 -20,-1 -14,20 33,-11 2,-29 59,-22 18,3 39,16 52,30l-65 88c34,10 20,6 37,-16 6,-7 25,-23 32,-26 1,-1 17,-2 17,-2 24,6 -14,6 52,30 -3,49 -40,93 -58,135 -21,51 16,22 43,19 -11,30 -36,65 -45,100 46,-16 37,-15 43,20 11,-19 15,-28 44,-26 7,15 2,29 -1,46 -2,19 13,11 9,38 -2,22 -35,51 -39,80 35,-17 12,-21 52,-11 -15,49 10,37 -19,94l-29 74c24,11 27,-2 32,-20 30,20 8,-2 54,1 -3,13 -7,29 -13,42 -13,32 -33,35 -34,73 -1,28 5,14 18,33 -9,24 2,12 -19,22 2,3 7,13 9,15 6,11 0,4 9,16 -11,11 -17,20 -27,32 6,0 14,-1 20,-1 1,0 3,0 5,-1l18 -7c12,-13 -10,-7 7,-6l18 13c14,22 -5,40 -6,68 9,-6 23,-17 36,-17 14,0 17,6 24,13 1,0 2,1 5,3 30,14 -17,-16 9,3 -4,44 -26,76 -40,121 -2,8 -3,13 -8,22 -5,13 0,-5 -7,14 7,3 10,1 25,10 -14,32 -2,20 -30,42 1,1 3,2 3,2l31 14c9,6 4,3 11,10 -7,11 -45,107 -53,127 30,5 13,5 41,-1 -7,23 -6,16 -15,33 28,-12 26,-25 43,-30 1,0 15,1 22,6 10,8 5,10 20,21l-19 40c-11,26 -21,56 -37,79l-37 70c15,-8 17,-11 30,-18 10,18 -4,8 10,28 15,22 10,7 20,15 16,11 11,-12 13,19 1,8 -3,15 -3,28 15,-4 5,-2 19,0l39 18c24,20 -11,80 -28,81 -9,0 -6,-4 -16,-12 -5,23 -1,17 10,26 -8,18 -13,18 -7,40 9,33 40,41 55,65 -1,1 -3,3 -3,4l-21 28c-11,42 5,7 14,35 7,21 -22,41 -26,69l-17 -23c-8,23 -21,39 -16,65 22,-7 -6,-8 24,-14 -18,77 -17,25 -49,42 40,22 17,22 43,49 0,1 1,1 2,2l8 4c24,15 53,62 54,92l-61 21c18,40 -3,-11 15,17 8,14 3,11 12,13l-1 32 -50 15 49 22c1,0 3,1 4,2 9,4 6,0 15,5 -12,35 -8,29 -40,52l-46 47c29,-4 33,-13 53,-23 5,8 -5,12 -10,15 24,5 31,4 33,32 -19,22 -30,16 -45,46l33 7c8,-1 13,-3 22,-4 -4,11 -10,11 -25,19 -8,6 -36,-1 -59,-1 -8,18 -18,22 -27,46l50 -23c-19,43 -5,64 -65,85 -26,10 -12,26 -9,31 6,10 3,-6 6,10 -20,20 -15,10 -31,37 -19,30 -76,80 -80,106 27,-5 4,-10 32,-15 55,-10 39,14 30,42 -12,39 -43,56 -68,93 21,-6 56,-9 64,18 -27,12 -35,15 -48,41 -11,20 3,17 -14,35 1,0 3,1 4,1l6 5c14,12 -1,32 -12,44 -10,10 0,-4 -12,11 -5,6 -3,4 -6,11 10,-8 31,-9 40,7 20,39 -6,56 -37,73l-121 95c-2,1 -4,5 -5,6l-7 27c-5,30 -9,25 -21,47 30,-7 63,-23 90,-12 40,68 -21,80 -51,117 17,16 20,33 17,56 -6,40 -14,16 -31,44 7,6 -15,9 22,6 25,-2 39,-19 67,-18 10,19 19,34 22,61 -22,16 -68,56 -86,77l29 0c0,32 1,33 16,55l-44 48c-4,4 -6,7 -10,10l-6 8c22,13 5,7 20,21 19,16 48,21 60,45 11,22 4,92 -6,116 -18,-2 4,2 -19,-9 -18,-7 -44,-21 -62,-21l46 66c9,11 17,22 26,32 32,34 28,42 75,89 16,16 43,48 44,69 -33,23 -67,5 -99,-17 23,39 8,15 2,46 18,27 50,60 75,79 32,25 50,52 81,71 -9,8 -21,14 -35,12 -34,-3 -58,-31 -85,-39l57 142c9,20 23,33 2,48l-23 14c7,22 14,27 18,48 9,48 13,30 27,67 13,32 25,59 5,81 -1,1 -2,2 -3,3l-26 18c4,13 10,38 15,53 7,23 6,41 16,55 24,37 -4,34 3,73 3,14 2,1 9,12l11 31c4,30 23,72 34,100 8,18 12,38 22,52 -8,3 -15,8 -22,12zm-4237 -5459c-15,-26 0,-89 9,-97 12,-10 -3,0 16,-6l16 -3c20,10 -19,14 30,15 33,0 10,1 33,-10l9 35c3,20 -3,26 -12,43 -5,9 -4,7 -8,17 -7,18 -1,11 -14,24l-16 -76c-26,11 -15,10 -31,31 -12,16 -16,12 -32,27zm466 174c-29,-47 -77,-78 -128,-101 12,-53 44,-82 57,-135 3,-15 1,-17 9,-34 28,24 57,36 93,45l60 11c-3,31 -4,50 -6,82 -2,26 -14,40 -21,65 -7,26 -17,46 -24,66 -11,33 1,46 -19,55 -12,-23 -6,-31 -21,-54zm-170 -302c1,1 7,12 7,13l-21 69c-16,-12 -23,-18 -45,-31 -36,-22 -32,-21 -40,-42l-3 -12c-4,-24 7,-48 17,-65 26,26 60,38 85,68zm-2831 -277c-20,-29 -6,-22 -10,-46 -1,1 -3,2 -4,3 0,1 -2,2 -3,3l-19 18c-16,17 -11,19 -17,28l-43 -6c-17,-4 -33,-8 -51,-15l-89 -41 13 -12c22,-17 85,-30 126,-8 41,23 109,18 125,56 -11,9 -20,14 -28,20z"/>
   <path class="fil0" d="M1332 6074c25,11 162,-9 162,-9l24 2c35,-2 113,26 143,38 23,10 29,20 53,30 12,5 19,6 29,11 53,26 65,91 36,118 -9,9 -44,15 -60,21l-14 5c-54,9 -125,0 -180,-14 -30,-7 -19,0 -50,-2 -1,0 -9,-1 -11,-2 -24,-4 -18,-17 -44,-2 -9,-25 27,-2 -7,-20l-60 -21c-1,-1 -1,-2 -2,-2 0,-1 -1,-2 -2,-2 -23,-23 -44,-35 -41,-76l13 -40c5,-12 9,-21 11,-35zm285 -213c-183,-2 -88,-11 -147,18 -11,5 -20,1 -23,13 -4,20 -21,39 -41,32 -12,-4 8,-8 -8,0 -3,1 -9,7 -12,10l-4 5c-1,1 -2,3 -2,4 -1,0 -1,1 -2,1l-10 14c-10,15 -5,4 -15,10 -25,15 -1,31 -47,44 4,51 13,21 -19,64 -16,22 -19,49 -28,78l-7 35c-1,1 -1,3 -2,3l-9 60 23 14 -17 4c-1,1 -2,1 -3,2 14,19 10,16 16,43l8 38c4,32 7,57 22,89 5,10 4,8 5,12l14 33c0,2 1,3 1,4 1,2 2,3 2,5l33 89c15,33 49,150 73,180 7,9 2,0 8,9 8,14 7,25 11,42 1,1 1,2 2,3 0,1 0,3 1,4l3 10c15,55 24,55 59,104 17,23 24,43 45,66 18,19 107,81 131,91 33,14 44,23 73,39 26,15 59,23 84,28l86 13c21,1 97,0 100,-1 2,3 5,11 5,12 25,48 75,76 121,107 51,36 222,131 277,148 1,0 2,0 3,1 1,0 2,0 3,1l14 9c10,6 18,7 30,11 92,32 152,25 215,43 34,10 172,62 195,39 26,-27 5,-40 -26,-44 14,-21 9,-3 16,-23l-16 -17 -83 6 12 -20c9,-19 -10,-35 -25,-51l12 -13c8,-11 6,-6 12,-18 -27,-24 4,-15 -31,-14 -20,1 -28,8 -41,-5 -17,-16 12,-31 4,-57 -24,-10 -55,-2 -81,-7 14,-19 13,-3 8,-20l-8 -14c-27,-30 -44,2 -66,-44l58 3c6,-10 12,-16 18,-28l-42 -24 3 -34c-27,-6 -44,-14 -70,-20 -29,-7 -53,-1 -58,-18 23,-1 67,9 85,15l17 -22c89,2 46,-47 -28,-67 -22,-6 -36,-3 -41,-20 13,0 10,1 18,3 19,4 26,-2 49,2 18,4 45,21 73,27l11 -34c-23,-14 -44,-22 -60,-35l47 -2 20 -33c-15,-13 -12,-12 -35,-13l29 -10 -14 -18c0,-1 -1,-2 -2,-3 -13,-14 -11,-7 -25,-15l-2 -43 -34 -1c7,-19 15,-33 20,-45 5,-13 -3,-4 9,-16l16 -19c12,-23 15,-67 20,-97 12,-62 -12,-232 -48,-282 -5,-7 -8,-5 -16,-17 -1,-1 -2,-2 -2,-3 0,0 -1,-2 -1,-3l-50 -54c0,0 -7,-8 -8,-9l-150 -160c-14,-14 -19,-16 -33,-32 -10,-12 -6,-6 -14,-20 -35,-63 5,-46 -84,-80 -67,-25 -143,-40 -215,-48 -42,-5 -79,-9 -115,-20 -14,-4 -15,-4 -26,-9l-188 -44c-19,-5 -24,-1 -47,-3 -23,-1 -37,-8 -61,-6 11,9 11,9 22,15z"/>
   <path class="fil0" d="M5570 7558c50,-31 38,-42 113,-67 18,-6 27,-6 30,-27 7,-45 -12,-61 -48,-60 -92,2 -176,15 -262,36l-21 5c-20,5 5,2 -19,2 -23,-1 -50,9 -72,13 -20,4 -18,-3 -43,6l-255 97c-31,8 -13,-7 -38,7 -18,9 -22,14 -38,21l-59 27c-7,3 -15,5 -22,9l-146 87c-4,3 -9,6 -11,7 -1,1 -2,2 -3,3 -57,49 -20,17 -67,43l-14 11c0,-2 -2,2 -3,3l11 7c10,8 7,12 24,13 26,1 181,-69 210,-87 8,-5 33,-27 36,-28 34,-16 10,3 41,8 -58,29 -34,27 -55,50 -11,11 -4,-4 -18,13 5,18 -1,17 10,34l19 18c1,-1 3,2 4,3 -42,3 -70,19 -97,42 -21,19 -38,13 -39,45 28,15 23,-2 46,11 -27,29 -63,19 -113,55 -11,8 -16,10 -32,20 -32,21 -132,53 -146,76 14,28 23,19 59,24 -5,22 -3,12 2,36 -39,14 -95,77 -129,105l-69 67c38,28 44,13 84,14 -2,29 -10,25 -24,45 -31,42 -64,51 -68,119 10,6 11,18 17,27 40,-6 5,-18 44,-21 -9,25 -11,-4 -13,29 11,5 26,15 38,22 -16,13 -17,55 -18,79 15,8 21,0 26,19 1,4 2,35 2,44l33 11c3,26 2,70 21,88 6,7 9,1 13,13l19 38c20,35 6,9 35,34 10,8 7,14 34,7l-1 -5c3,-8 -14,9 4,-4 29,-23 44,10 62,16 20,7 -3,0 13,-1l50 8c11,3 21,9 33,13 7,2 27,5 33,5 41,-41 24,-86 22,-145l89 25c50,17 44,35 74,45l23 3c41,-73 -30,-177 22,-127 7,7 13,15 22,18 20,7 44,-6 60,-10 -8,-32 2,-92 22,-118l31 8c0,1 2,1 3,2 31,12 53,26 67,-14 7,-19 1,-40 -3,-57 -5,-22 -11,-53 -15,-71 34,8 74,14 108,29 40,-34 38,-37 45,-92 5,-34 9,-88 10,-118l3 -122c-1,-42 4,-79 5,-118 38,5 12,13 39,10 2,-1 3,-1 5,-1l32 -18c0,-1 1,-2 1,-3 2,-3 8,-16 12,-22 38,7 -5,10 30,9 45,-1 1,-119 -7,-143 -13,-35 -21,-29 -13,-66 3,-12 5,-30 7,-40 3,-16 -3,-8 7,-16 23,-21 13,19 35,-18l32 -78c5,-25 16,-52 14,-74 -2,-13 0,-5 -5,-13z"/>
  </g>
 </g>
</svg>
